<svg width="99" height="35" viewBox="0 0 99 35" fill="none" xmlns="http://www.w3.org/2000/svg">
<path d="M71 34V0H78V34H71Z" fill="url(#paint0_linear_1_23)"/>
<path d="M81 34V0H87.1818L92.1818 15.5608V0H99V34H92.8182L87.6364 18.0794V34H81Z" fill="url(#paint1_linear_1_23)"/>
<path fill-rule="evenodd" clip-rule="evenodd" d="M5.40167 0.410309L0 34.1499H6.73131L7.72854 27.5017H11.3019L12.2992 34.1499H18.9474L13.6288 0.410309H5.40167ZM9.47224 11.2192L8.30881 24.1832H10.885L9.47224 11.2192Z" fill="url(#paint2_linear_1_23)"/>
<path d="M23 33.9058V0H29.5V29.169H36.9612V33.9058H23Z" fill="url(#paint3_linear_1_23)"/>
<path d="M41 33.9058V0H47.7313V29.169H54.9612V33.9058H41Z" fill="url(#paint4_linear_1_23)"/>
<defs>
<linearGradient id="paint0_linear_1_23" x1="74.5" y1="0" x2="74.5" y2="34" gradientUnits="userSpaceOnUse">
<stop stop-color="white"/>
<stop offset="1" stop-color="#999999"/>
</linearGradient>
<linearGradient id="paint1_linear_1_23" x1="90" y1="0" x2="90" y2="34" gradientUnits="userSpaceOnUse">
<stop stop-color="white"/>
<stop offset="1" stop-color="#999999"/>
</linearGradient>
<linearGradient id="paint2_linear_1_23" x1="9.47369" y1="0.410309" x2="9.47369" y2="34.1499" gradientUnits="userSpaceOnUse">
<stop stop-color="#E00109"/>
<stop offset="1" stop-color="#7A0105"/>
</linearGradient>
<linearGradient id="paint3_linear_1_23" x1="29.9806" y1="0" x2="29.9806" y2="33.9058" gradientUnits="userSpaceOnUse">
<stop stop-color="#E00109"/>
<stop offset="1" stop-color="#7A0105"/>
</linearGradient>
<linearGradient id="paint4_linear_1_23" x1="47.9806" y1="0" x2="47.9806" y2="33.9058" gradientUnits="userSpaceOnUse">
<stop stop-color="#E00109"/>
<stop offset="1" stop-color="#7A0105"/>
</linearGradient>
</defs>
</svg>
