<svg width="399" height="292" viewBox="0 0 399 292" fill="none" xmlns="http://www.w3.org/2000/svg">
<g filter="url(#filter0_d_1_19)">
<path d="M126.226 166.3C121.046 166.3 117.398 164.24 115.279 160.12C113.16 156.118 112.101 151.41 112.101 145.995C112.101 141.169 112.748 136.402 114.043 131.694C115.455 126.986 117.103 123.396 118.987 120.924C115.809 124.69 111.865 128.987 107.157 133.813C102.449 138.639 97.2696 143.288 91.6197 147.761C85.9698 152.234 80.1433 155.942 74.1402 158.884C68.1371 161.827 62.1929 163.298 56.3075 163.298C54.5419 163.298 52.7763 163.122 51.0107 162.769C49.3628 162.533 47.7149 162.062 46.067 161.356C41.7119 159.591 38.4749 156.471 36.3562 151.998C34.2375 147.408 33.1781 141.935 33.1781 135.578C33.1781 128.869 34.2963 121.689 36.5327 114.038C38.8869 106.269 42.3004 98.3829 46.7733 90.3788C48.892 86.4944 51.2461 82.669 53.8357 78.9023C56.543 75.018 59.4268 71.3691 62.4872 67.9556C58.8383 66.3077 55.4836 64.4832 52.4232 62.4822C49.3628 60.3634 46.7733 58.0682 44.6545 55.5963C43.2421 53.9484 42.1827 52.0062 41.4764 49.7698C40.7702 47.5334 40.4171 45.3558 40.4171 43.2371C40.4171 39.4704 41.2999 36.9986 43.0655 35.8215C43.654 34.8798 44.3603 34.409 45.1842 34.409C46.2436 34.409 46.7733 35.0564 46.7733 36.3512C46.7733 37.1751 46.5379 38.0579 46.067 38.9996C45.4785 40.5298 45.1842 41.9423 45.1842 43.2371C45.1842 45.1204 45.6551 46.886 46.5967 48.5339C47.5384 50.0641 48.6566 51.5354 49.9514 52.9479C53.718 57.4208 58.8971 61.1285 65.4887 64.0712C73.022 55.8317 81.2615 48.2396 90.2072 41.2949C99.2707 34.2325 108.982 28.5825 119.34 24.3451C129.698 20.1076 140.586 17.9889 152.003 17.9889C161.538 17.9889 169.012 20.1076 174.427 24.3451C179.841 28.4648 182.548 33.8205 182.548 40.4121C182.548 43.5902 181.607 47.0625 179.724 50.8292C177.84 54.4781 174.78 58.0682 170.542 61.5994C166.305 65.0129 160.655 68.0144 153.593 70.604C146.648 73.0758 137.996 74.7826 127.638 75.7242C123.989 76.0774 120.693 76.3716 117.751 76.607C114.926 76.7247 111.865 76.7836 108.57 76.7836C102.449 76.7836 96.5045 76.3716 90.7369 75.5477C85.0869 74.7237 79.437 73.4289 73.7871 71.6633C71.6683 74.606 68.9611 78.6081 65.6653 83.6695C62.4872 88.7309 59.3091 94.1454 56.131 99.9131C52.9529 105.681 50.3045 111.154 48.1858 116.333C46.3024 121.277 44.89 125.809 43.9483 129.928C43.0066 133.93 42.5358 137.52 42.5358 140.699C42.5358 146.466 43.8894 150.821 46.5967 153.764C49.304 156.589 52.9529 158.002 57.5435 158.002C62.0163 158.002 67.0778 156.707 72.7277 154.117C78.4953 151.528 84.4984 147.643 90.7369 142.464C96.9754 137.285 103.037 131.459 108.923 124.985C114.926 118.511 120.399 111.919 125.343 105.21C130.286 98.5006 134.289 92.3209 137.349 86.671C139.35 82.9044 141.292 80.256 143.175 78.7258C145.059 77.0779 146.648 76.2539 147.943 76.2539C149.237 76.2539 150.238 76.7836 150.944 77.843C151.65 78.7846 152.003 80.0794 152.003 81.7273C152.003 85.0231 150.532 88.3189 147.589 91.6147C144.294 95.2636 141.057 99.7365 137.879 105.033C134.701 110.33 131.876 115.921 129.404 121.807C126.932 127.692 125.166 133.46 124.107 139.11C123.754 140.993 123.518 142.758 123.401 144.406C123.283 146.054 123.224 147.526 123.224 148.82C123.224 153.176 123.871 156.295 125.166 158.178C126.579 160.061 128.403 161.003 130.64 161.003C133.347 161.003 136.466 159.767 139.997 157.295C143.529 154.823 146.942 151.528 150.238 147.408C153.063 143.641 155.77 139.639 158.36 135.402C161.067 131.164 163.539 126.75 165.775 122.16C166.128 121.336 166.599 120.747 167.188 120.394C167.894 119.923 168.365 119.688 168.6 119.688C169.189 119.688 169.483 120.041 169.483 120.747C169.483 121.218 169.306 121.924 168.953 122.866C167.894 125.22 166.481 128.045 164.716 131.341C162.95 134.637 161.008 138.05 158.889 141.581C156.771 144.995 154.593 148.173 152.357 151.116C149.296 155.118 145.412 158.649 140.704 161.709C136.113 164.77 131.287 166.3 126.226 166.3ZM106.98 72.5461C113.101 72.5461 119.928 72.193 127.462 71.4868C137.231 70.6628 145.706 68.7207 152.886 65.6603C160.066 62.5999 165.599 58.7155 169.483 54.0073C173.367 49.299 175.309 44.061 175.309 38.2934C175.309 33.1142 173.132 29.171 168.777 26.4638C164.539 23.7565 159.125 22.4029 152.533 22.4029C141.586 22.4029 131.581 24.5805 122.518 28.9356C113.572 33.1731 105.333 38.7642 97.7993 45.7089C90.3838 52.6536 83.3213 60.128 76.612 68.1321C85.5578 71.0748 95.6806 72.5461 106.98 72.5461ZM175.101 155.53C170.157 155.53 166.803 154.235 165.037 151.645C163.272 148.938 162.389 145.76 162.389 142.111C162.389 138.344 162.919 134.46 163.978 130.458C165.037 126.456 165.979 123.101 166.803 120.394C168.686 113.802 171.04 106.799 173.865 99.3834C176.808 91.8501 179.986 84.4934 183.4 77.3133C186.931 70.0154 190.403 63.4827 193.817 57.715C196.524 53.1245 199.408 49.7109 202.468 47.4745C205.646 45.1204 208.412 43.9433 210.766 43.9433C212.65 43.9433 214.121 44.6495 215.18 46.062C216.358 47.3568 216.946 49.3578 216.946 52.0651C216.946 53.9484 216.593 56.1848 215.887 58.7744C215.298 61.364 214.239 64.3066 212.709 67.6024C208.589 76.7836 203.645 85.9648 197.878 95.1459C192.228 104.327 185.047 112.92 176.337 120.924C175.866 122.454 175.219 124.278 174.395 126.397C173.689 128.398 173.041 130.458 172.453 132.577C171.747 135.755 171.393 138.462 171.393 140.699C171.393 144.348 172.1 147.114 173.512 148.997C175.042 150.763 176.867 151.645 178.986 151.645C180.869 151.645 182.87 150.998 184.989 149.703C187.107 148.291 189.108 146.29 190.992 143.7C193.817 139.58 196.347 135.402 198.584 131.164C200.938 126.809 202.704 123.454 203.881 121.1C204.587 119.806 205.352 119.158 206.176 119.158C206.764 119.158 207.059 119.511 207.059 120.218C207.059 120.806 206.882 121.453 206.529 122.16C205.47 124.514 204.057 127.574 202.292 131.341C200.644 134.99 198.525 138.698 195.935 142.464C193.464 146.113 190.462 149.232 186.931 151.822C183.517 154.294 179.574 155.53 175.101 155.53ZM177.75 115.274C181.987 110.919 186.107 105.916 190.109 100.266C194.111 94.4985 197.819 88.5543 201.232 82.4335C204.763 76.1951 207.706 70.3097 210.06 64.7775C210.884 63.0119 211.532 61.0697 212.002 58.951C212.591 56.8322 212.885 55.0666 212.885 53.6541C212.885 52.0062 212.473 51.1823 211.649 51.1823C211.178 51.1823 210.472 51.6531 209.531 52.5948C208.589 53.4187 207.353 54.8901 205.823 57.0088C203.586 59.9515 201.114 63.9535 198.407 69.0149C195.818 74.0763 193.169 79.4909 190.462 85.2585C187.755 91.0262 185.283 96.6172 183.046 102.032C180.81 107.329 179.044 111.743 177.75 115.274ZM212.689 155.53C207.746 155.53 204.391 154.235 202.625 151.645C200.86 148.938 199.977 145.76 199.977 142.111C199.977 138.344 200.507 134.46 201.566 130.458C202.625 126.456 203.567 123.101 204.391 120.394C206.274 113.802 208.628 106.799 211.453 99.3834C214.396 91.8501 217.574 84.4934 220.988 77.3133C224.519 70.0154 227.991 63.4827 231.405 57.715C234.112 53.1245 236.996 49.7109 240.056 47.4745C243.234 45.1204 246 43.9433 248.355 43.9433C250.238 43.9433 251.709 44.6495 252.769 46.062C253.946 47.3568 254.534 49.3578 254.534 52.0651C254.534 53.9484 254.181 56.1848 253.475 58.7744C252.886 61.364 251.827 64.3066 250.297 67.6024C246.177 76.7836 241.233 85.9648 235.466 95.1459C229.816 104.327 222.636 112.92 213.925 120.924C213.454 122.454 212.807 124.278 211.983 126.397C211.277 128.398 210.629 130.458 210.041 132.577C209.335 135.755 208.982 138.462 208.982 140.699C208.982 144.348 209.688 147.114 211.1 148.997C212.63 150.763 214.455 151.645 216.574 151.645C218.457 151.645 220.458 150.998 222.577 149.703C224.695 148.291 226.696 146.29 228.58 143.7C231.405 139.58 233.935 135.402 236.172 131.164C238.526 126.809 240.292 123.454 241.469 121.1C242.175 119.806 242.94 119.158 243.764 119.158C244.353 119.158 244.647 119.511 244.647 120.218C244.647 120.806 244.47 121.453 244.117 122.16C243.058 124.514 241.645 127.574 239.88 131.341C238.232 134.99 236.113 138.698 233.523 142.464C231.052 146.113 228.05 149.232 224.519 151.822C221.105 154.294 217.162 155.53 212.689 155.53ZM215.338 115.274C219.575 110.919 223.695 105.916 227.697 100.266C231.699 94.4985 235.407 88.5543 238.82 82.4335C242.352 76.1951 245.294 70.3097 247.648 64.7775C248.472 63.0119 249.12 61.0697 249.591 58.951C250.179 56.8322 250.473 55.0666 250.473 53.6541C250.473 52.0062 250.061 51.1823 249.237 51.1823C248.767 51.1823 248.06 51.6531 247.119 52.5948C246.177 53.4187 244.941 54.8901 243.411 57.0088C241.174 59.9515 238.703 63.9535 235.995 69.0149C233.406 74.0763 230.757 79.4909 228.05 85.2585C225.343 91.0262 222.871 96.6172 220.635 102.032C218.398 107.329 216.633 111.743 215.338 115.274ZM307.089 83.3163C305.323 83.3163 303.852 82.7278 302.675 81.5507C301.615 80.256 301.086 78.7258 301.086 76.9602C301.086 74.7237 301.968 72.7815 303.734 71.1336C305.5 69.4857 307.442 68.6618 309.56 68.6618C311.444 68.6618 312.974 69.2503 314.151 70.4274C315.328 71.6045 315.917 73.017 315.917 74.6649C315.917 76.9013 315.034 78.9023 313.268 80.6679C311.503 82.4335 309.443 83.3163 307.089 83.3163ZM292.787 155C288.432 155 285.372 153.764 283.606 151.292C281.84 148.703 280.958 145.76 280.958 142.464C280.958 140.699 281.134 138.933 281.487 137.167C281.958 135.284 282.488 133.577 283.076 132.047L294.906 101.855C295.259 100.914 295.436 100.09 295.436 99.3834C295.436 98.2063 295.141 97.2058 294.553 96.3818C293.964 95.4402 293.552 94.7928 293.317 94.4397L303.028 94.0865C304.793 93.9688 306.029 94.2043 306.735 94.7928C307.559 95.2636 307.971 95.8522 307.971 96.5584C307.971 97.2646 307.559 98.5594 306.735 100.443L292.081 134.872C292.081 134.872 291.728 135.637 291.022 137.167C290.433 138.58 290.08 139.522 289.962 139.992C289.609 141.758 289.374 142.876 289.256 143.347C289.138 143.818 289.079 144.112 289.079 144.23C289.079 144.348 289.079 144.818 289.079 145.642C289.079 147.172 289.433 148.467 290.139 149.527C290.963 150.586 292.316 151.116 294.2 151.116C295.377 151.116 296.73 150.763 298.261 150.056C299.791 149.35 300.909 148.644 301.615 147.938C304.558 144.877 307.442 140.875 310.267 135.931C313.209 130.87 315.917 125.867 318.388 120.924C318.859 119.747 319.448 119.158 320.154 119.158C320.743 119.158 321.037 119.57 321.037 120.394C321.037 120.865 320.86 121.571 320.507 122.513C319.33 124.985 317.859 128.045 316.093 131.694C314.328 135.343 312.209 138.992 309.737 142.641C307.383 146.172 304.793 149.115 301.968 151.469C299.143 153.823 296.083 155 292.787 155ZM301.577 156.412C305.814 147.82 309.875 139.345 313.759 130.988C317.761 122.513 321.822 114.45 325.942 106.799C328.296 102.561 330.238 99.6188 331.768 97.9709C333.416 96.2053 335.594 95.3225 338.301 95.3225C339.243 95.3225 340.243 95.499 341.303 95.8522C342.362 96.0876 343.421 96.2053 344.481 96.2053C345.187 96.2053 345.717 96.1464 346.07 96.0287C344.422 96.9704 342.303 99.3245 339.714 103.091C337.124 106.74 334.476 110.978 331.768 115.804C329.061 120.63 326.648 125.161 324.529 129.399C326.766 126.691 329.061 123.984 331.415 121.277C333.887 118.57 336.594 115.98 339.537 113.508C342.362 111.036 345.717 108.506 349.601 105.916C353.603 103.209 357.487 100.972 361.254 99.2068C365.021 97.4412 368.022 96.5584 370.259 96.5584C371.083 96.5584 371.671 96.6172 372.024 96.735C372.024 96.735 371.377 97.912 370.082 100.266C368.787 102.503 367.139 105.504 365.138 109.271C363.255 112.92 361.313 116.863 359.312 121.1C357.311 125.22 355.486 129.222 353.839 133.106C352.308 136.873 351.308 140.051 350.837 142.641C350.484 144.171 350.307 145.583 350.307 146.878C350.307 148.762 350.66 149.997 351.367 150.586C352.073 151.175 352.838 151.469 353.662 151.469C355.898 151.469 358.253 150.292 360.724 147.938C363.196 145.466 365.55 142.464 367.787 138.933C370.141 135.402 372.201 131.988 373.966 128.692C375.85 125.279 377.203 122.689 378.027 120.924C378.498 119.982 378.851 119.452 379.087 119.335C379.322 119.099 379.675 118.982 380.146 118.982C380.852 118.982 381.205 119.452 381.205 120.394C381.205 120.983 381.029 121.63 380.676 122.336C379.263 125.044 377.557 128.28 375.556 132.047C373.672 135.814 371.495 139.522 369.023 143.17C366.551 146.702 363.844 149.703 360.901 152.175C357.958 154.529 354.78 155.706 351.367 155.706C349.013 155.706 346.541 154.882 343.951 153.234C341.479 151.586 340.243 148.526 340.243 144.053C340.243 142.758 340.361 141.405 340.597 139.992C340.832 138.462 341.244 136.814 341.832 135.049C342.774 132.694 343.892 130.164 345.187 127.457C346.482 124.749 348.601 121.041 351.543 116.333C352.367 115.038 352.838 114.038 352.956 113.332C353.191 112.625 353.309 112.037 353.309 111.566C353.309 110.154 352.662 109.447 351.367 109.447C350.307 109.447 348.718 110.036 346.6 111.213C344.599 112.39 342.068 114.45 339.007 117.393C336.065 120.218 332.534 124.22 328.414 129.399C324.412 134.578 319.762 142.229 314.466 152.352C313.642 153.882 312.7 154.706 311.641 154.823C310.699 154.941 309.345 155.059 307.58 155.177C306.403 155.294 305.284 155.353 304.225 155.353C303.166 155.471 302.283 155.824 301.577 156.412Z" fill="#D9D9D9"/>
</g>
<g filter="url(#filter1_d_1_19)">
<path d="M88.9195 258.157C85.3882 258.157 82.8755 257.444 81.3815 256.018C79.9554 254.524 79.2423 252.011 79.2423 248.48V196.529C79.2423 192.998 79.9554 190.519 81.3815 189.093C82.8755 187.599 85.3882 186.852 88.9195 186.852H102.06C104.029 186.852 105.422 187.361 106.236 188.38C107.119 189.331 107.764 190.791 108.172 192.76H92.1791C90.0739 192.76 88.7497 193.201 88.2064 194.084C87.6631 194.967 87.3915 196.461 87.3915 198.566V246.443C87.3915 248.548 87.6631 250.042 88.2064 250.925C88.7497 251.807 90.0739 252.249 92.1791 252.249H108.172V255.407C108.172 256.493 108.002 257.24 107.663 257.648C107.391 257.987 106.712 258.157 105.625 258.157H88.9195ZM127.287 224.134V255.407C127.287 256.493 127.083 257.24 126.675 257.648C126.336 257.987 125.623 258.157 124.536 258.157H119.137V196.529C119.137 192.998 119.85 190.519 121.277 189.093C122.771 187.599 125.283 186.852 128.815 186.852H143.483C147.014 186.852 149.493 187.599 150.919 189.093C152.413 190.519 153.16 192.998 153.16 196.529V255.407C153.16 256.493 152.956 257.24 152.549 257.648C152.209 257.987 151.496 258.157 150.41 258.157H145.011V198.566C145.011 196.597 144.739 195.171 144.196 194.288C143.721 193.405 142.6 192.896 140.835 192.76H131.463C129.63 192.896 128.475 193.405 128 194.288C127.524 195.171 127.287 196.597 127.287 198.566V218.226H140.936V221.384C140.936 222.47 140.767 223.217 140.427 223.625C140.156 223.964 139.476 224.134 138.39 224.134H127.287ZM194.575 248.48C194.575 252.011 193.828 254.524 192.334 256.018C190.907 257.444 188.429 258.157 184.897 258.157H172.47C170.501 258.157 169.074 257.682 168.192 256.731C167.377 255.712 166.766 254.218 166.358 252.249H181.638C183.743 252.249 185.067 251.807 185.61 250.925C186.154 250.042 186.425 248.548 186.425 246.443V229.941C186.425 227.835 186.12 226.341 185.509 225.459C184.965 224.576 183.539 224.134 181.23 224.134H176.035C172.504 224.134 169.991 223.421 168.497 221.995C167.071 220.501 166.358 217.988 166.358 214.457V196.529C166.358 192.998 167.071 190.519 168.497 189.093C169.991 187.599 172.504 186.852 176.035 186.852H188.157C190.126 186.852 191.519 187.361 192.334 188.38C193.216 189.331 193.861 190.791 194.269 192.76H179.295C177.19 192.76 175.865 193.201 175.322 194.084C174.779 194.967 174.507 196.461 174.507 198.566V212.42C174.507 214.525 174.779 216.019 175.322 216.902C175.865 217.785 177.19 218.226 179.295 218.226H184.897C188.429 218.226 190.907 218.973 192.334 220.467C193.828 221.893 194.575 224.372 194.575 227.903V248.48ZM216.219 186.852V255.407C216.219 256.493 216.015 257.24 215.608 257.648C215.268 257.987 214.555 258.157 213.469 258.157H208.07V189.602C208.07 188.516 208.24 187.803 208.579 187.463C208.987 187.056 209.734 186.852 210.82 186.852H216.219ZM257.946 230.45L263.549 245.628H264.16L262.53 230.144V189.602C262.53 188.516 262.7 187.803 263.039 187.463C263.447 187.056 264.194 186.852 265.281 186.852H270.679V255.407C270.679 256.493 270.476 257.24 270.068 257.648C269.729 257.987 269.016 258.157 267.929 258.157H262.632L243.787 215.374L238.083 198.974H237.471L238.999 213.235V255.407C238.999 256.493 238.796 257.24 238.388 257.648C238.049 257.987 237.336 258.157 236.249 258.157H230.85V189.602C230.85 188.516 231.02 187.803 231.36 187.463C231.767 187.056 232.514 186.852 233.601 186.852H239.101L257.946 230.45ZM293.309 246.443C293.309 248.548 293.581 250.042 294.124 250.925C294.667 251.807 295.992 252.249 298.097 252.249H307.265C309.37 252.249 310.694 251.807 311.237 250.925C311.781 250.042 312.052 248.548 312.052 246.443V198.566C312.052 196.461 311.781 194.967 311.237 194.084C310.694 193.201 309.37 192.76 307.265 192.76H298.097C295.992 192.76 294.667 193.201 294.124 194.084C293.581 194.967 293.309 196.461 293.309 198.566V246.443ZM285.16 196.529C285.16 192.998 285.873 190.519 287.299 189.093C288.793 187.599 291.306 186.852 294.837 186.852H310.524C314.056 186.852 316.534 187.599 317.96 189.093C319.454 190.519 320.201 192.998 320.201 196.529V248.48C320.201 252.011 319.454 254.524 317.96 256.018C316.534 257.444 314.056 258.157 310.524 258.157H294.837C291.306 258.157 288.793 257.444 287.299 256.018C285.873 254.524 285.16 252.011 285.16 248.48V196.529Z" fill="#D9D9D9"/>
</g>
<defs>
<filter id="filter0_d_1_19" x="0.177979" y="0.988861" width="398.027" height="198.311" filterUnits="userSpaceOnUse" color-interpolation-filters="sRGB">
<feFlood flood-opacity="0" result="BackgroundImageFix"/>
<feColorMatrix in="SourceAlpha" type="matrix" values="0 0 0 0 0 0 0 0 0 0 0 0 0 0 0 0 0 0 127 0" result="hardAlpha"/>
<feOffset dx="-8" dy="8"/>
<feGaussianBlur stdDeviation="12.5"/>
<feComposite in2="hardAlpha" operator="out"/>
<feColorMatrix type="matrix" values="0 0 0 0 1 0 0 0 0 0.179167 0 0 0 0 0.179167 0 0 0 0.44 0"/>
<feBlend mode="normal" in2="BackgroundImageFix" result="effect1_dropShadow_1_19"/>
<feBlend mode="normal" in="SourceGraphic" in2="effect1_dropShadow_1_19" result="shape"/>
</filter>
<filter id="filter1_d_1_19" x="46.2424" y="169.852" width="290.959" height="121.305" filterUnits="userSpaceOnUse" color-interpolation-filters="sRGB">
<feFlood flood-opacity="0" result="BackgroundImageFix"/>
<feColorMatrix in="SourceAlpha" type="matrix" values="0 0 0 0 0 0 0 0 0 0 0 0 0 0 0 0 0 0 127 0" result="hardAlpha"/>
<feOffset dx="-8" dy="8"/>
<feGaussianBlur stdDeviation="12.5"/>
<feComposite in2="hardAlpha" operator="out"/>
<feColorMatrix type="matrix" values="0 0 0 0 1 0 0 0 0 0.179167 0 0 0 0 0.179167 0 0 0 0.44 0"/>
<feBlend mode="normal" in2="BackgroundImageFix" result="effect1_dropShadow_1_19"/>
<feBlend mode="normal" in="SourceGraphic" in2="effect1_dropShadow_1_19" result="shape"/>
</filter>
</defs>
</svg>
